<?xml version="1.0" encoding="UTF-8" standalone="no"?>
<!-- Created with Inkscape (http://www.inkscape.org/) -->

<svg
   xmlns:dc="http://purl.org/dc/elements/1.1/"
   xmlns:cc="http://creativecommons.org/ns#"
   xmlns:rdf="http://www.w3.org/1999/02/22-rdf-syntax-ns#"
   xmlns:svg="http://www.w3.org/2000/svg"
   xmlns="http://www.w3.org/2000/svg"
   xmlns:xlink="http://www.w3.org/1999/xlink"
   xmlns:sodipodi="http://sodipodi.sourceforge.net/DTD/sodipodi-0.dtd"
   xmlns:inkscape="http://www.inkscape.org/namespaces/inkscape"
   width="210mm"
   height="297mm"
   id="svg2"
   version="1.1"
   inkscape:version="0.48.1 "
   sodipodi:docname="mars.svg">
  <defs
     id="defs4">
    <linearGradient
       id="linearGradient4411">
      <stop
         style="stop-color:#522b2b;stop-opacity:0;"
         offset="0"
         id="stop4413" />
      <stop
         style="stop-color:#040404;stop-opacity:0.74820143;"
         offset="1"
         id="stop4415" />
    </linearGradient>
    <linearGradient
       id="linearGradient3767">
      <stop
         style="stop-color:#af0000;stop-opacity:1;"
         offset="0"
         id="stop3769" />
      <stop
         id="stop3775"
         offset="0.5"
         style="stop-color:#7f0000;stop-opacity:1;" />
      <stop
         style="stop-color:#3f0000;stop-opacity:1;"
         offset="0.75"
         id="stop3777" />
      <stop
         style="stop-color:#330000;stop-opacity:1;"
         offset="1"
         id="stop3771" />
    </linearGradient>
    <radialGradient
       inkscape:collect="always"
       xlink:href="#linearGradient3767-6"
       id="radialGradient3773-6"
       cx="257.14285"
       cy="406.64789"
       fx="257.14285"
       fy="406.64789"
       r="77.64286"
       gradientUnits="userSpaceOnUse" />
    <linearGradient
       id="linearGradient3767-6">
      <stop
         style="stop-color:#af0000;stop-opacity:1;"
         offset="0"
         id="stop3769-2" />
      <stop
         id="stop3775-4"
         offset="0.5"
         style="stop-color:#7f0000;stop-opacity:1;" />
      <stop
         style="stop-color:#3f0000;stop-opacity:1;"
         offset="0.75"
         id="stop3777-1" />
      <stop
         style="stop-color:#330000;stop-opacity:1;"
         offset="1"
         id="stop3771-7" />
    </linearGradient>
    <radialGradient
       inkscape:collect="always"
       xlink:href="#linearGradient3767-9"
       id="radialGradient3773-0"
       cx="257.14285"
       cy="406.64789"
       fx="257.14285"
       fy="406.64789"
       r="77.64286"
       gradientUnits="userSpaceOnUse" />
    <linearGradient
       id="linearGradient3767-9">
      <stop
         style="stop-color:#af0000;stop-opacity:1;"
         offset="0"
         id="stop3769-0" />
      <stop
         id="stop3775-7"
         offset="0.5"
         style="stop-color:#7f0000;stop-opacity:1;" />
      <stop
         style="stop-color:#3f0000;stop-opacity:1;"
         offset="0.75"
         id="stop3777-3" />
      <stop
         style="stop-color:#330000;stop-opacity:1;"
         offset="1"
         id="stop3771-9" />
    </linearGradient>
    <radialGradient
       r="77.64286"
       fy="406.64789"
       fx="257.14285"
       cy="406.64789"
       cx="257.14285"
       gradientUnits="userSpaceOnUse"
       id="radialGradient3806-8-4"
       xlink:href="#linearGradient3767-9-6"
       inkscape:collect="always" />
    <linearGradient
       id="linearGradient3767-9-6">
      <stop
         style="stop-color:#af0000;stop-opacity:1;"
         offset="0"
         id="stop3769-0-7" />
      <stop
         id="stop3775-7-6"
         offset="0.5"
         style="stop-color:#7f0000;stop-opacity:1;" />
      <stop
         style="stop-color:#3f0000;stop-opacity:1;"
         offset="0.75"
         id="stop3777-3-4" />
      <stop
         style="stop-color:#330000;stop-opacity:1;"
         offset="1"
         id="stop3771-9-1" />
    </linearGradient>
    <radialGradient
       r="77.64286"
       fy="406.64789"
       fx="257.14285"
       cy="406.64789"
       cx="257.14285"
       gradientUnits="userSpaceOnUse"
       id="radialGradient3806-8-0"
       xlink:href="#linearGradient3767-9-69"
       inkscape:collect="always" />
    <linearGradient
       id="linearGradient3767-9-69">
      <stop
         style="stop-color:#af0000;stop-opacity:1;"
         offset="0"
         id="stop3769-0-1" />
      <stop
         id="stop3775-7-9"
         offset="0.5"
         style="stop-color:#7f0000;stop-opacity:1;" />
      <stop
         style="stop-color:#3f0000;stop-opacity:1;"
         offset="0.75"
         id="stop3777-3-6" />
      <stop
         style="stop-color:#330000;stop-opacity:1;"
         offset="1"
         id="stop3771-9-4" />
    </linearGradient>
    <filter
       inkscape:collect="always"
       id="filter3937">
      <feGaussianBlur
         inkscape:collect="always"
         stdDeviation="6.3497989"
         id="feGaussianBlur3939" />
    </filter>
    <filter
       inkscape:collect="always"
       id="filter3941">
      <feGaussianBlur
         inkscape:collect="always"
         stdDeviation="8.3905729"
         id="feGaussianBlur3943" />
    </filter>
    <filter
       inkscape:collect="always"
       id="filter3953">
      <feGaussianBlur
         inkscape:collect="always"
         stdDeviation="5.3571429"
         id="feGaussianBlur3955" />
    </filter>
    <filter
       inkscape:collect="always"
       id="filter3957">
      <feGaussianBlur
         inkscape:collect="always"
         stdDeviation="5.85"
         id="feGaussianBlur3959" />
    </filter>
    <filter
       inkscape:collect="always"
       id="filter3961">
      <feGaussianBlur
         inkscape:collect="always"
         stdDeviation="7.05"
         id="feGaussianBlur3963" />
    </filter>
    <filter
       inkscape:collect="always"
       id="filter3965">
      <feGaussianBlur
         inkscape:collect="always"
         stdDeviation="6.7285714"
         id="feGaussianBlur3967" />
    </filter>
    <filter
       inkscape:collect="always"
       id="filter3985">
      <feGaussianBlur
         inkscape:collect="always"
         stdDeviation="6.1714288"
         id="feGaussianBlur3987" />
    </filter>
    <radialGradient
       r="77.64286"
       fy="406.64789"
       fx="257.14285"
       cy="406.64789"
       cx="257.14285"
       gradientUnits="userSpaceOnUse"
       id="radialGradient3877-4-7"
       xlink:href="#linearGradient3767-9-69-4"
       inkscape:collect="always" />
    <linearGradient
       id="linearGradient3767-9-69-4">
      <stop
         style="stop-color:#af0000;stop-opacity:1;"
         offset="0"
         id="stop3769-0-1-2" />
      <stop
         id="stop3775-7-9-2"
         offset="0.5"
         style="stop-color:#7f0000;stop-opacity:1;" />
      <stop
         style="stop-color:#3f0000;stop-opacity:1;"
         offset="0.75"
         id="stop3777-3-6-1" />
      <stop
         style="stop-color:#330000;stop-opacity:1;"
         offset="1"
         id="stop3771-9-4-3" />
    </linearGradient>
    <radialGradient
       r="77.64286"
       fy="406.64789"
       fx="257.14285"
       cy="406.64789"
       cx="257.14285"
       gradientUnits="userSpaceOnUse"
       id="radialGradient3877-4-8"
       xlink:href="#linearGradient3767-9-69-8"
       inkscape:collect="always" />
    <linearGradient
       id="linearGradient3767-9-69-8">
      <stop
         style="stop-color:#af0000;stop-opacity:1;"
         offset="0"
         id="stop3769-0-1-3" />
      <stop
         id="stop3775-7-9-3"
         offset="0.5"
         style="stop-color:#7f0000;stop-opacity:1;" />
      <stop
         style="stop-color:#3f0000;stop-opacity:1;"
         offset="0.75"
         id="stop3777-3-6-4" />
      <stop
         style="stop-color:#330000;stop-opacity:1;"
         offset="1"
         id="stop3771-9-4-2" />
    </linearGradient>
    <filter
       color-interpolation-filters="sRGB"
       inkscape:collect="always"
       id="filter3985-9">
      <feGaussianBlur
         inkscape:collect="always"
         stdDeviation="6.1714288"
         id="feGaussianBlur3987-7" />
    </filter>
    <radialGradient
       r="77.64286"
       fy="406.64789"
       fx="257.14285"
       cy="406.64789"
       cx="257.14285"
       gradientUnits="userSpaceOnUse"
       id="radialGradient3877-4-1"
       xlink:href="#linearGradient3767-9-69-9"
       inkscape:collect="always" />
    <linearGradient
       id="linearGradient3767-9-69-9">
      <stop
         style="stop-color:#af0000;stop-opacity:1;"
         offset="0"
         id="stop3769-0-1-38" />
      <stop
         id="stop3775-7-9-8"
         offset="0.5"
         style="stop-color:#7f0000;stop-opacity:1;" />
      <stop
         style="stop-color:#3f0000;stop-opacity:1;"
         offset="0.75"
         id="stop3777-3-6-9" />
      <stop
         style="stop-color:#330000;stop-opacity:1;"
         offset="1"
         id="stop3771-9-4-5" />
    </linearGradient>
    <radialGradient
       inkscape:collect="always"
       xlink:href="#linearGradient3767-0"
       id="radialGradient3773-9"
       cx="257.14285"
       cy="406.64789"
       fx="257.14285"
       fy="406.64789"
       r="77.64286"
       gradientUnits="userSpaceOnUse" />
    <linearGradient
       id="linearGradient3767-0">
      <stop
         style="stop-color:#af0000;stop-opacity:1;"
         offset="0"
         id="stop3769-01" />
      <stop
         id="stop3775-2"
         offset="0.5"
         style="stop-color:#7f0000;stop-opacity:1;" />
      <stop
         style="stop-color:#3f0000;stop-opacity:1;"
         offset="0.75"
         id="stop3777-7" />
      <stop
         style="stop-color:#330000;stop-opacity:1;"
         offset="1"
         id="stop3771-0" />
    </linearGradient>
    <filter
       inkscape:collect="always"
       id="filter4131">
      <feGaussianBlur
         inkscape:collect="always"
         stdDeviation="6.1714288"
         id="feGaussianBlur4133" />
    </filter>
    <filter
       inkscape:collect="always"
       id="filter4135">
      <feGaussianBlur
         inkscape:collect="always"
         stdDeviation="6.1714288"
         id="feGaussianBlur4137" />
    </filter>
    <filter
       inkscape:collect="always"
       id="filter4143">
      <feGaussianBlur
         inkscape:collect="always"
         stdDeviation="6.1714288"
         id="feGaussianBlur4145" />
    </filter>
    <filter
       inkscape:collect="always"
       id="filter4147">
      <feGaussianBlur
         inkscape:collect="always"
         stdDeviation="7.2285715"
         id="feGaussianBlur4149" />
    </filter>
    <filter
       inkscape:collect="always"
       id="filter4151">
      <feGaussianBlur
         inkscape:collect="always"
         stdDeviation="4.7428571"
         id="feGaussianBlur4153" />
    </filter>
    <filter
       inkscape:collect="always"
       id="filter4159"
       x="-0.144"
       width="1.288"
       y="-0.144"
       height="1.288">
      <feGaussianBlur
         inkscape:collect="always"
         stdDeviation="9.2571432"
         id="feGaussianBlur4161" />
    </filter>
    <filter
       inkscape:collect="always"
       id="filter4163"
       x="-0.12"
       width="1.24"
       y="-0.12"
       height="1.24">
      <feGaussianBlur
         inkscape:collect="always"
         stdDeviation="7.714286"
         id="feGaussianBlur4165" />
    </filter>
    <filter
       inkscape:collect="always"
       id="filter4167"
       x="-0.12"
       width="1.24"
       y="-0.12"
       height="1.24">
      <feGaussianBlur
         inkscape:collect="always"
         stdDeviation="7.714286"
         id="feGaussianBlur4169" />
    </filter>
    <filter
       inkscape:collect="always"
       id="filter4175"
       x="-0.144"
       width="1.288"
       y="-0.144"
       height="1.288">
      <feGaussianBlur
         inkscape:collect="always"
         stdDeviation="9.2571432"
         id="feGaussianBlur4177" />
    </filter>
    <filter
       inkscape:collect="always"
       id="filter4187">
      <feGaussianBlur
         inkscape:collect="always"
         stdDeviation="9.5999999"
         id="feGaussianBlur4189" />
    </filter>
    <radialGradient
       inkscape:collect="always"
       xlink:href="#linearGradient3767-9"
       id="radialGradient4344"
       gradientUnits="userSpaceOnUse"
       cx="257.14285"
       cy="406.64789"
       fx="257.14285"
       fy="406.64789"
       r="77.64286" />
    <radialGradient
       inkscape:collect="always"
       xlink:href="#linearGradient3767-9-69-4"
       id="radialGradient4350"
       gradientUnits="userSpaceOnUse"
       cx="257.14285"
       cy="406.64789"
       fx="257.14285"
       fy="406.64789"
       r="77.64286" />
    <radialGradient
       inkscape:collect="always"
       xlink:href="#linearGradient3767-9-69-8"
       id="radialGradient4352"
       gradientUnits="userSpaceOnUse"
       cx="257.14285"
       cy="406.64789"
       fx="257.14285"
       fy="406.64789"
       r="77.64286" />
    <radialGradient
       inkscape:collect="always"
       xlink:href="#linearGradient3767-9-69-9"
       id="radialGradient4354"
       gradientUnits="userSpaceOnUse"
       cx="257.14285"
       cy="406.64789"
       fx="257.14285"
       fy="406.64789"
       r="77.64286" />
    <radialGradient
       inkscape:collect="always"
       xlink:href="#linearGradient3767-6"
       id="radialGradient4379"
       gradientUnits="userSpaceOnUse"
       cx="257.14285"
       cy="406.64789"
       fx="257.14285"
       fy="406.64789"
       r="77.64286" />
    <radialGradient
       inkscape:collect="always"
       xlink:href="#linearGradient3767-9-69"
       id="radialGradient4381"
       gradientUnits="userSpaceOnUse"
       cx="257.14285"
       cy="406.64789"
       fx="257.14285"
       fy="406.64789"
       r="77.64286" />
    <radialGradient
       inkscape:collect="always"
       xlink:href="#linearGradient3767"
       id="radialGradient4383"
       gradientUnits="userSpaceOnUse"
       cx="257.14285"
       cy="406.64789"
       fx="257.14285"
       fy="406.64789"
       r="77.64286" />
    <radialGradient
       inkscape:collect="always"
       xlink:href="#linearGradient3767-9-6"
       id="radialGradient4385"
       gradientUnits="userSpaceOnUse"
       cx="257.14285"
       cy="406.64789"
       fx="257.14285"
       fy="406.64789"
       r="77.64286" />
    <radialGradient
       inkscape:collect="always"
       xlink:href="#linearGradient3767-0"
       id="radialGradient4387"
       gradientUnits="userSpaceOnUse"
       cx="257.14285"
       cy="406.64789"
       fx="257.14285"
       fy="406.64789"
       r="77.64286" />
    <filter
       inkscape:collect="always"
       id="filter4389">
      <feGaussianBlur
         inkscape:collect="always"
         stdDeviation="20.54408"
         id="feGaussianBlur4391" />
    </filter>
    <radialGradient
       inkscape:collect="always"
       xlink:href="#linearGradient4411"
       id="radialGradient4417"
       cx="482.85715"
       cy="526.64789"
       fx="482.85715"
       fy="526.64789"
       r="342.85715"
       gradientUnits="userSpaceOnUse" />
  </defs>
  <sodipodi:namedview
     id="base"
     pagecolor="#ffffff"
     bordercolor="#666666"
     borderopacity="1.0"
     inkscape:pageopacity="0.0"
     inkscape:pageshadow="2"
     inkscape:zoom="0.35"
     inkscape:cx="-11.428571"
     inkscape:cy="455.66637"
     inkscape:document-units="px"
     inkscape:current-layer="layer1"
     showgrid="false"
     inkscape:window-width="1366"
     inkscape:window-height="706"
     inkscape:window-x="-8"
     inkscape:window-y="-8"
     inkscape:window-maximized="1" />
  <metadata
     id="metadata7">
    <rdf:RDF>
      <cc:Work
         rdf:about="">
        <dc:format>image/svg+xml</dc:format>
        <dc:type
           rdf:resource="http://purl.org/dc/dcmitype/StillImage" />
        <dc:title />
      </cc:Work>
    </rdf:RDF>
  </metadata>
  <g
     inkscape:label="Capa 1"
     inkscape:groupmode="layer"
     id="layer1">
    <g
       id="g4203"
       transform="translate(1214.2857,77.142857)"
       style="fill:#000000;fill-opacity:1;filter:url(#filter4389)">
      <path
         transform="matrix(0.91133432,0,0,0.91133433,-507.64859,209.93857)"
         d="m 8.5714417,262.36218 c 0,207.50128 -168.2130217,375.7143 -375.7142917,375.7143 -207.50128,0 -375.7143,-168.21302 -375.7143,-375.7143 0,-207.501272 168.21302,-375.71429 375.7143,-375.71429 207.50127,0 375.7142917,168.213018 375.7142917,375.71429 z"
         sodipodi:ry="375.71429"
         sodipodi:rx="375.71429"
         sodipodi:cy="262.36218"
         sodipodi:cx="-367.14285"
         id="path4194"
         style="fill:#000000;fill-rule:evenodd;stroke:none;fill-opacity:1"
         sodipodi:type="arc" />
    </g>
    <path
       sodipodi:type="arc"
       style="fill:#980000;fill-opacity:1;fill-rule:evenodd;stroke:none"
       id="path2996"
       sodipodi:cx="482.85715"
       sodipodi:cy="526.64789"
       sodipodi:rx="342.85715"
       sodipodi:ry="342.85715"
       d="m 825.71429,526.64789 a 342.85715,342.85715 0 1 1 -685.71429,0 342.85715,342.85715 0 1 1 685.71429,0 z"
       transform="translate(-110.80991,-0.46679688)" />
    <path
       style="fill:#c87137;stroke:#000000;stroke-width:1px;stroke-linecap:butt;stroke-linejoin:miter;stroke-opacity:1;filter:url(#filter4147)"
       d="m 136.6502,278.19593 125.7143,97.14285 277.1429,5.71429 31.4285,-5.71429 71.4286,-40 14.2857,-5.71428 C 631.9003,283.90224 586.7522,251.77872 539.5074,221.05307 479.0102,206.3947 497.4522,186.09782 342.3645,178.19592 268.5416,191.47581 195.5255,205.12583 136.6502,278.19593 z"
       id="path3761"
       inkscape:connector-curvature="0"
       sodipodi:nodetypes="ccccccccc" />
    <g
       id="g4191"
       transform="translate(-34.778414,8.6908843)">
      <path
         sodipodi:nodetypes="ccccccccccccccccc"
         inkscape:connector-curvature="0"
         id="path2998"
         d="m 242.85715,220.93361 65.71428,65.71429 c 53.33333,44.38572 106.66667,56.06843 160,62.85714 l 74.28571,-28.57143 14.28572,-51.42857 c -8.40825,-16.19048 -16.19324,-32.38095 -54.28572,-48.57143 -41.69192,-20.101 -74.04674,-2.85363 -108.57143,5.71429 l -28.57142,14.28571 22.85714,22.85714 34.28571,-25.71428 60,14.28571 11.42857,28.57143 -34.28571,20 -80,-14.28571 -71.42857,-40 2.85714,-57.14286 c -68.09088,14.21707 -49.99167,24.28452 -68.57142,31.42857 z"
         style="fill:#800000;stroke:none;filter:url(#filter4151)" />
    </g>
    <path
       style="fill:#800000;stroke:none;filter:url(#filter3953)"
       d="m 148.07874,261.05306 c 31.4434,46.62245 69.6247,73.03094 108.5715,97.14286 -7.748,-9.65897 72.1248,-8.36534 185.7143,-2.85714 46.1117,9.57181 103.8887,26.14279 114.2857,14.28571 56.8008,-6.80349 64.2778,-33.33649 85.7143,-54.28571 l 17.1428,31.42857 c -23.7734,9.08983 -15.8476,-1.19726 -88.5714,42.85714 -33.6881,6.36783 -73.2495,15.67236 -137.1429,37.14286 -75.8846,-17.14286 -145.9687,-34.28571 -214.2857,-51.42857 -39.0476,-3.64581 -69.5238,-22.30245 -108.5714,-71.42857 19.758,-19.75801 24.941,-30.65534 37.1428,-42.85715 z"
       id="path3000"
       inkscape:connector-curvature="0"
       sodipodi:nodetypes="ccccccccccc" />
    <path
       style="fill:#c87137;stroke:#000000;stroke-width:1px;stroke-linecap:butt;stroke-linejoin:miter;stroke-opacity:1;filter:url(#filter3961)"
       d="m 68.078786,381.05307 39.999964,-51.42857 57.1429,137.14291 240,57.1428 157.14286,-45.7143 120,-71.42855 22.85714,42.85714 -131.42857,154.28571 -51.42857,22.8572 -208.57143,5.7142 -194.28573,-62.8571 -37.142764,-125.71429 z"
       id="path3757"
       inkscape:connector-curvature="0" />
    <path
       style="fill:#c87137;stroke:none;filter:url(#filter4187)"
       d="m 42.364507,618.19593 54.28571,74.2857 134.285723,62.8571 208.57143,11.4286 160,-37.1428 68.57143,-65.7143 42.85714,-111.42859 -11.42857,-77.14286 -134.28571,145.71425 -71.42857,22.8572 -171.42857,37.1428 -77.14286,-14.2857 -137.14286,-25.7143 -20.000013,-28.5714 z"
       id="path3759"
       inkscape:connector-curvature="0" />
    <path
       style="fill:#800000;stroke:none;filter:url(#filter3937)"
       d="m 110.93589,332.48165 c 5.7524,38.7856 -25.763104,42.6327 94.28576,188.5714 73.5628,9.3173 78.96799,-0.839 102.85714,-5.7142 l 45.71428,5.7142 28.57143,-5.7142 -37.14286,37.1428 c -16.45518,4.4878 8.74905,40.5394 85.71429,31.4286 12.00913,-1.4216 78.27654,27.1915 120.00001,-8.5714 -4.79494,-15.2051 -5.68113,-34.3189 -2.85714,-57.1429 -39.30955,4.5 -79.464,8.1551 -111.42859,20 l 17.14286,20 60.00001,-20 0,20 c -6.20593,32.1965 -44.45341,10.9904 -71.42858,8.5714 l -42.85714,-14.2857 11.42857,-22.8571 100.00001,-11.4286 40,-25.7143 82.85714,-22.8571 c 43.7787,-33.3102 47.2049,-36.3561 62.85714,-48.5715 -11.42857,-9.8016 -22.85714,-32.272 -34.28571,-57.1428 -31.18661,18.9189 -57.42689,25.4719 -102.85714,80 l -74.28573,17.1428 -34.28571,17.1429 -40,17.1429 -77.14286,-2.8572 -65.71427,-11.4286 -74.28572,-34.2857 c -32.54609,-8.5328 -57.75849,-61.0679 -82.85719,-114.2857 z"
       id="path3002"
       inkscape:connector-curvature="0"
       sodipodi:nodetypes="ccccccscccccccccccccccccccccc" />
    <path
       style="fill:#c87137;stroke:#000000;stroke-width:1px;stroke-linecap:butt;stroke-linejoin:miter;stroke-opacity:1;filter:url(#filter3965)"
       d="m 30.935891,563.91022 60,114.28565 248.571429,114.2858 174.28569,-31.4286 105.71431,-77.1429 c 33.0682,8.62 50.8334,-84.16609 77.1429,-122.85709 l -97.1429,79.99994 -171.42861,57.14285 -208.57142,11.4286 z"
       id="path3763"
       inkscape:connector-curvature="0"
       sodipodi:nodetypes="cccccccccc" />
    <path
       style="fill:#800000;stroke:none;filter:url(#filter3941)"
       d="m 68.078794,395.33879 25.71429,14.28571 17.142856,85.71429 105.7143,100.00001 c 24.84434,25.8553 106.83882,17.4205 165.71428,22.8571 51.331,9.2916 102.3939,19.2534 168.57143,-8.5714 91.55312,-107.46765 99.46742,-103.41688 148.57143,-154.28571 0.0797,23.22743 18.1233,53.89561 2.85714,54.28571 -46.87589,31.14961 -97.82359,56.87009 -122.85714,117.1429 l -174.28571,37.1428 -65.71429,45.7143 -120,-40 -80,-14.2857 -65.714296,-45.7143 c 0,0 8.57143,62.8572 42.857146,62.8572 34.28572,0 157.14286,62.8571 157.14286,62.8571 l 68.57143,0 c 0,0 37.14286,-31.4286 62.85715,-31.4286 25.71428,0 108.57142,11.4286 128.57142,5.7143 20,-5.7143 94.28572,-37.1428 94.28572,-37.1428 l -34.28572,-14.2858 -77.14285,37.1429 48.57143,-45.7143 c 0,0 40,-17.1428 57.14285,-31.4286 17.14286,-14.2857 77.14286,-77.14282 77.14286,-77.14282 27.87657,-26.47131 0.75201,56.63132 -5.71429,105.71432 l -54.28571,51.4285 c 6.48741,25.1445 -74.96366,79.359 -120,97.1429 l -168.57143,40 -162.85714,-60 -94.285726,-74.2857 C 72.835744,680.0924 36.986423,617.169 39.507373,635.3388 c 0,0 0.49795,-121.83586 -5.71429,-131.42858 -5.59083,-8.63316 24.852991,-103.85506 34.285711,-108.57143 z"
       id="path3004"
       inkscape:connector-curvature="0"
       sodipodi:nodetypes="ccccccccccccccsccssccccsccccccccsc" />
    <path
       style="fill:#800000;stroke:none;filter:url(#filter3957)"
       d="m 59.507371,678.19593 97.142799,62.85716 174.2858,74.2857 74.2857,5.7143 91.4285,-62.8572 71.4286,5.7143 c 38.5412,-14.5775 62.3659,-32.0982 62.8572,-54.28569 l 28.5714,-5.71429 c 0,0 -13.5645,32.71678 -45.7143,65.71428 -18.8326,19.3293 -84.0752,67.3459 -108.5714,71.4286 l -131.4286,17.1428 -131.4286,-25.7142 c -14.5258,-42.617 -84.5153,-52.6276 -120,-85.7143 z"
       id="path3006"
       inkscape:connector-curvature="0"
       sodipodi:nodetypes="ccccccccsccccc" />
    <path
       sodipodi:type="arc"
       style="fill:url(#radialGradient4383);fill-opacity:1;fill-rule:evenodd;stroke:none;filter:url(#filter4135)"
       id="path3765"
       sodipodi:cx="257.14285"
       sodipodi:cy="406.64789"
       sodipodi:rx="77.14286"
       sodipodi:ry="77.14286"
       d="m 334.28571,406.64789 a 77.14286,77.14286 0 1 1 -154.28572,0 77.14286,77.14286 0 1 1 154.28572,0 z"
       transform="translate(44.101859,-48.918777)" />
    <path
       sodipodi:type="arc"
       style="fill:url(#radialGradient4379);fill-opacity:1;fill-rule:evenodd;stroke:none;filter:url(#filter4131)"
       id="path3765-8"
       sodipodi:cx="257.14285"
       sodipodi:cy="406.64789"
       sodipodi:rx="77.14286"
       sodipodi:ry="77.14286"
       d="m 334.28571,406.64789 a 77.14286,77.14286 0 1 1 -154.28572,0 77.14286,77.14286 0 1 1 154.28572,0 z"
       transform="translate(-49.06406,257.26232)" />
    <path
       sodipodi:type="arc"
       style="fill:url(#radialGradient4344);fill-opacity:1;fill-rule:evenodd;stroke:none;filter:url(#filter4163)"
       id="path3765-7"
       sodipodi:cx="257.14285"
       sodipodi:cy="406.64789"
       sodipodi:rx="77.14286"
       sodipodi:ry="77.14286"
       d="m 334.28571,406.64789 a 77.14286,77.14286 0 1 1 -154.28572,0 77.14286,77.14286 0 1 1 154.28572,0 z"
       transform="matrix(0.40862398,0,0,0.40862398,7.2897657,230.60127)" />
    <g
       id="g4196"
       transform="translate(-120.49263,265.83374)">
      <path
         transform="matrix(0.40862398,0,0,0.40862398,349.21098,206.1961)"
         d="m 334.28571,406.64789 c 0,42.60482 -34.53803,77.14286 -77.14286,77.14286 -42.60482,0 -77.14286,-34.53804 -77.14286,-77.14286 0,-42.60483 34.53804,-77.14286 77.14286,-77.14286 42.60483,0 77.14286,34.53803 77.14286,77.14286 z"
         sodipodi:ry="77.14286"
         sodipodi:rx="77.14286"
         sodipodi:cy="406.64789"
         sodipodi:cx="257.14285"
         id="path3765-7-1"
         style="fill:url(#radialGradient4385);fill-opacity:1;fill-rule:evenodd;stroke:none;filter:url(#filter4175)"
         sodipodi:type="arc" />
    </g>
    <path
       sodipodi:type="arc"
       style="fill:url(#radialGradient4381);fill-opacity:1;fill-rule:evenodd;stroke:none;filter:url(#filter3985)"
       id="path3765-7-5"
       sodipodi:cx="257.14285"
       sodipodi:cy="406.64789"
       sodipodi:rx="77.14286"
       sodipodi:ry="77.14286"
       d="m 334.28571,406.64789 a 77.14286,77.14286 0 1 1 -154.28572,0 77.14286,77.14286 0 1 1 154.28572,0 z"
       transform="matrix(0.40862398,0,0,0.40862398,331.57549,566.31555)" />
    <path
       sodipodi:type="arc"
       style="fill:url(#radialGradient4350);fill-opacity:1;fill-rule:evenodd;stroke:none;filter:url(#filter4167)"
       id="path3765-7-5-3"
       sodipodi:cx="257.14285"
       sodipodi:cy="406.64789"
       sodipodi:rx="77.14286"
       sodipodi:ry="77.14286"
       d="m 334.28571,406.64789 a 77.14286,77.14286 0 1 1 -154.28572,0 77.14286,77.14286 0 1 1 154.28572,0 z"
       transform="matrix(0.40862398,0,0,0.40862398,483.00406,166.31556)" />
    <path
       sodipodi:type="arc"
       style="fill:url(#radialGradient4352);fill-opacity:1;fill-rule:evenodd;stroke:none;filter:url(#filter3985-9)"
       id="path3765-7-5-9"
       sodipodi:cx="257.14285"
       sodipodi:cy="406.64789"
       sodipodi:rx="77.14286"
       sodipodi:ry="77.14286"
       d="m 334.28571,406.64789 a 77.14286,77.14286 0 1 1 -154.28572,0 77.14286,77.14286 0 1 1 154.28572,0 z"
       transform="matrix(0.40862398,0,0,0.40862398,511.57547,492.02984)" />
    <path
       sodipodi:type="arc"
       style="fill:url(#radialGradient4354);fill-opacity:1;fill-rule:evenodd;stroke:none;filter:url(#filter4159)"
       id="path3765-7-5-5"
       sodipodi:cx="257.14285"
       sodipodi:cy="406.64789"
       sodipodi:rx="77.14286"
       sodipodi:ry="77.14286"
       d="m 334.28571,406.64789 a 77.14286,77.14286 0 1 1 -154.28572,0 77.14286,77.14286 0 1 1 154.28572,0 z"
       transform="matrix(0.28433863,0,0,0.28433863,172.106,428.2845)" />
    <path
       sodipodi:type="arc"
       style="fill:url(#radialGradient4387);fill-opacity:1;fill-rule:evenodd;stroke:none;filter:url(#filter4143)"
       id="path3765-2"
       sodipodi:cx="257.14285"
       sodipodi:cy="406.64789"
       sodipodi:rx="77.14286"
       sodipodi:ry="77.14286"
       d="m 334.28571,406.64789 a 77.14286,77.14286 0 1 1 -154.28572,0 77.14286,77.14286 0 1 1 154.28572,0 z"
       transform="matrix(0.59531211,0,0,0.59531211,470.71282,243.25636)" />
    <path
       sodipodi:type="arc"
       style="fill:url(#radialGradient4417);fill-opacity:1.0;fill-rule:evenodd;stroke:none"
       id="path2996-9"
       sodipodi:cx="482.85715"
       sodipodi:cy="526.64789"
       sodipodi:rx="342.85715"
       sodipodi:ry="342.85715"
       d="m 825.71429,526.64789 a 342.85715,342.85715 0 1 1 -685.71429,0 342.85715,342.85715 0 1 1 685.71429,0 z"
       transform="translate(-110.80991,-0.46679688)" />
  </g>
</svg>
